<svg width="18" height="18" viewBox="0 0 18 18" fill="none" xmlns="http://www.w3.org/2000/svg">
<mask id="path-1-inside-1_117_354" fill="white">
<path d="M17.0943 7.73332L15.2332 7.17776C15.1046 6.72849 14.9276 6.29448 14.7055 5.88332L15.6166 4.17776C15.6508 4.11338 15.6633 4.0397 15.6523 3.96764C15.6413 3.89558 15.6073 3.829 15.5555 3.77776L14.2277 2.44443C14.1764 2.39258 14.1099 2.35863 14.0378 2.34762C13.9657 2.33661 13.8921 2.34913 13.8277 2.38332L12.1332 3.28887C11.718 3.05591 11.2783 2.86959 10.8221 2.73332L10.2666 0.894428C10.2431 0.826659 10.1987 0.768094 10.1398 0.727162C10.0809 0.68623 10.0105 0.665043 9.93879 0.66665H8.06101C7.98887 0.666986 7.91872 0.690336 7.86076 0.733302C7.80281 0.776268 7.76008 0.836607 7.73879 0.905539L7.18323 2.73887C6.72324 2.87442 6.27977 3.06075 5.86101 3.29443L4.19435 2.39443C4.12997 2.36024 4.05628 2.34772 3.98422 2.35873C3.91217 2.36974 3.84558 2.40369 3.79435 2.45554L2.44435 3.77221C2.3925 3.82344 2.35855 3.89003 2.34754 3.96208C2.33653 4.03414 2.34905 4.10783 2.38324 4.17221L3.28324 5.83887C3.04993 6.25587 2.86361 6.69746 2.72768 7.15554L0.888791 7.7111C0.81986 7.73238 0.75952 7.77511 0.716554 7.83307C0.673588 7.89102 0.650238 7.96117 0.649902 8.03332V9.91109C0.650238 9.98324 0.673588 10.0534 0.716554 10.1113C0.75952 10.1693 0.81986 10.212 0.888791 10.2333L2.73879 10.7889C2.87621 11.2393 3.0625 11.6734 3.29435 12.0833L2.38324 13.8278C2.34905 13.8921 2.33653 13.9658 2.34754 14.0379C2.35855 14.1099 2.3925 14.1765 2.44435 14.2278L3.77212 15.5555C3.82336 15.6074 3.88995 15.6413 3.962 15.6523C4.03406 15.6634 4.10775 15.6508 4.17212 15.6167L5.88879 14.7C6.29488 14.9191 6.72324 15.0942 7.16657 15.2222L7.72212 17.0944C7.74341 17.1634 7.78614 17.2237 7.8441 17.2667C7.90205 17.3096 7.9722 17.333 8.04435 17.3333H9.92212C9.99427 17.333 10.0644 17.3096 10.1224 17.2667C10.1803 17.2237 10.2231 17.1634 10.2443 17.0944L10.7999 15.2167C11.2394 15.088 11.664 14.9129 12.0666 14.6944L13.7943 15.6167C13.8587 15.6508 13.9324 15.6634 14.0045 15.6523C14.0765 15.6413 14.1431 15.6074 14.1943 15.5555L15.5221 14.2278C15.574 14.1765 15.6079 14.1099 15.6189 14.0379C15.6299 13.9658 15.6174 13.8921 15.5832 13.8278L14.661 12.1055C14.8818 11.7015 15.0587 11.275 15.1888 10.8333L17.061 10.2778C17.1299 10.2565 17.1903 10.2137 17.2332 10.1558C17.2762 10.0978 17.2996 10.0277 17.2999 9.95554V8.06109C17.3032 7.99201 17.2852 7.92358 17.2485 7.86499C17.2118 7.8064 17.158 7.76045 17.0943 7.73332ZM8.9999 12.0555C8.39557 12.0555 7.80481 11.8763 7.30233 11.5406C6.79984 11.2048 6.4082 10.7276 6.17694 10.1693C5.94567 9.61096 5.88516 8.99659 6.00306 8.40387C6.12096 7.81116 6.41197 7.26671 6.8393 6.83938C7.26662 6.41205 7.81107 6.12104 8.40379 6.00314C8.99651 5.88524 9.61088 5.94575 10.1692 6.17702C10.7275 6.40829 11.2048 6.79992 11.5405 7.30241C11.8763 7.80489 12.0555 8.39565 12.0555 8.99998C12.0555 9.81037 11.7335 10.5876 11.1605 11.1606C10.5875 11.7336 9.81029 12.0555 8.9999 12.0555Z"/>
</mask>
<path d="M17.0943 7.73332L15.2332 7.17776C15.1046 6.72849 14.9276 6.29448 14.7055 5.88332L15.6166 4.17776C15.6508 4.11338 15.6633 4.0397 15.6523 3.96764C15.6413 3.89558 15.6073 3.829 15.5555 3.77776L14.2277 2.44443C14.1764 2.39258 14.1099 2.35863 14.0378 2.34762C13.9657 2.33661 13.8921 2.34913 13.8277 2.38332L12.1332 3.28887C11.718 3.05591 11.2783 2.86959 10.8221 2.73332L10.2666 0.894428C10.2431 0.826659 10.1987 0.768094 10.1398 0.727162C10.0809 0.68623 10.0105 0.665043 9.93879 0.66665H8.06101C7.98887 0.666986 7.91872 0.690336 7.86076 0.733302C7.80281 0.776268 7.76008 0.836607 7.73879 0.905539L7.18323 2.73887C6.72324 2.87442 6.27977 3.06075 5.86101 3.29443L4.19435 2.39443C4.12997 2.36024 4.05628 2.34772 3.98422 2.35873C3.91217 2.36974 3.84558 2.40369 3.79435 2.45554L2.44435 3.77221C2.3925 3.82344 2.35855 3.89003 2.34754 3.96208C2.33653 4.03414 2.34905 4.10783 2.38324 4.17221L3.28324 5.83887C3.04993 6.25587 2.86361 6.69746 2.72768 7.15554L0.888791 7.7111C0.81986 7.73238 0.75952 7.77511 0.716554 7.83307C0.673588 7.89102 0.650238 7.96117 0.649902 8.03332V9.91109C0.650238 9.98324 0.673588 10.0534 0.716554 10.1113C0.75952 10.1693 0.81986 10.212 0.888791 10.2333L2.73879 10.7889C2.87621 11.2393 3.0625 11.6734 3.29435 12.0833L2.38324 13.8278C2.34905 13.8921 2.33653 13.9658 2.34754 14.0379C2.35855 14.1099 2.3925 14.1765 2.44435 14.2278L3.77212 15.5555C3.82336 15.6074 3.88995 15.6413 3.962 15.6523C4.03406 15.6634 4.10775 15.6508 4.17212 15.6167L5.88879 14.7C6.29488 14.9191 6.72324 15.0942 7.16657 15.2222L7.72212 17.0944C7.74341 17.1634 7.78614 17.2237 7.8441 17.2667C7.90205 17.3096 7.9722 17.333 8.04435 17.3333H9.92212C9.99427 17.333 10.0644 17.3096 10.1224 17.2667C10.1803 17.2237 10.2231 17.1634 10.2443 17.0944L10.7999 15.2167C11.2394 15.088 11.664 14.9129 12.0666 14.6944L13.7943 15.6167C13.8587 15.6508 13.9324 15.6634 14.0045 15.6523C14.0765 15.6413 14.1431 15.6074 14.1943 15.5555L15.5221 14.2278C15.574 14.1765 15.6079 14.1099 15.6189 14.0379C15.6299 13.9658 15.6174 13.8921 15.5832 13.8278L14.661 12.1055C14.8818 11.7015 15.0587 11.275 15.1888 10.8333L17.061 10.2778C17.1299 10.2565 17.1903 10.2137 17.2332 10.1558C17.2762 10.0978 17.2996 10.0277 17.2999 9.95554V8.06109C17.3032 7.99201 17.2852 7.92358 17.2485 7.86499C17.2118 7.8064 17.158 7.76045 17.0943 7.73332ZM8.9999 12.0555C8.39557 12.0555 7.80481 11.8763 7.30233 11.5406C6.79984 11.2048 6.4082 10.7276 6.17694 10.1693C5.94567 9.61096 5.88516 8.99659 6.00306 8.40387C6.12096 7.81116 6.41197 7.26671 6.8393 6.83938C7.26662 6.41205 7.81107 6.12104 8.40379 6.00314C8.99651 5.88524 9.61088 5.94575 10.1692 6.17702C10.7275 6.40829 11.2048 6.79992 11.5405 7.30241C11.8763 7.80489 12.0555 8.39565 12.0555 8.99998C12.0555 9.81037 11.7335 10.5876 11.1605 11.1606C10.5875 11.7336 9.81029 12.0555 8.9999 12.0555Z" fill="white"/>
<path d="M15.2332 7.17776L14.2719 7.4531L14.4226 7.97939L14.9472 8.13598L15.2332 7.17776ZM14.7055 5.88332L13.8234 5.41213L13.5703 5.886L13.8257 6.35866L14.7055 5.88332ZM15.6166 4.17776L16.4986 4.64895L16.4998 4.64677L15.6166 4.17776ZM15.5555 3.77776L14.8469 4.48341L14.8526 4.48908L15.5555 3.77776ZM14.2277 2.44443L13.5164 3.1473L13.5191 3.15006L14.2277 2.44443ZM13.8277 2.38332L13.3587 1.50012L13.3563 1.50136L13.8277 2.38332ZM12.1332 3.28887L11.6439 4.16098L12.1215 4.42897L12.6046 4.17082L12.1332 3.28887ZM10.8221 2.73332L9.86486 3.02252L10.0204 3.5375L10.5359 3.69148L10.8221 2.73332ZM10.2666 0.894428L11.2238 0.605223L11.218 0.585891L11.2114 0.56681L10.2666 0.894428ZM9.93879 0.66665V1.66665H9.94999L9.96119 1.6664L9.93879 0.66665ZM8.06101 0.66665V-0.333361L8.05636 -0.333339L8.06101 0.66665ZM7.73879 0.905539L6.7833 0.610464L6.78177 0.615532L7.73879 0.905539ZM7.18323 2.73887L7.46588 3.6981L7.9837 3.54551L8.14026 3.02888L7.18323 2.73887ZM5.86101 3.29443L5.38586 4.17433L5.86892 4.43518L6.34831 4.16767L5.86101 3.29443ZM4.19435 2.39443L4.66951 1.5145L4.66335 1.51123L4.19435 2.39443ZM3.79435 2.45554L4.49256 3.17143L4.49917 3.16498L4.50567 3.15841L3.79435 2.45554ZM2.44435 3.77221L1.74612 3.0563L1.74148 3.06088L2.44435 3.77221ZM2.38324 4.17221L1.50002 4.64122L1.50333 4.64735L2.38324 4.17221ZM3.28324 5.83887L4.15593 6.32713L4.42433 5.84741L4.16314 5.36372L3.28324 5.83887ZM2.72768 7.15554L3.01688 8.11281L3.53299 7.95688L3.68636 7.44002L2.72768 7.15554ZM0.888791 7.7111L0.599581 6.75381L0.59372 6.75562L0.888791 7.7111ZM0.649902 8.03332L-0.350098 8.02866V8.03332H0.649902ZM0.649902 9.91109H-0.350109L-0.350087 9.91575L0.649902 9.91109ZM0.888791 10.2333L0.593711 11.1888L0.601179 11.1911L0.888791 10.2333ZM2.73879 10.7889L3.69528 10.4971L3.53908 9.98508L3.0264 9.83113L2.73879 10.7889ZM3.29435 12.0833L4.18073 12.5463L4.43246 12.0643L4.16477 11.591L3.29435 12.0833ZM2.38324 13.8278L3.26645 14.2968L3.26962 14.2907L2.38324 13.8278ZM2.44435 14.2278L3.15147 13.5206L3.14721 13.5164L2.44435 14.2278ZM3.77212 15.5555L4.48346 14.8527L4.47923 14.8484L3.77212 15.5555ZM4.17212 15.6167L4.64113 16.4998L4.64316 16.4988L4.17212 15.6167ZM5.88879 14.7L6.36367 13.8199L5.89126 13.565L5.41776 13.8179L5.88879 14.7ZM7.16657 15.2222L8.12525 14.9377L7.96962 14.4133L7.44402 14.2615L7.16657 15.2222ZM7.72212 17.0944L6.76338 17.3789L6.76665 17.3895L7.72212 17.0944ZM8.04435 17.3333L8.03969 18.3333H8.04435V17.3333ZM9.92212 17.3333V18.3333L9.92678 18.3333L9.92212 17.3333ZM10.2443 17.0944L11.1999 17.3895L11.2033 17.3781L10.2443 17.0944ZM10.7999 15.2167L10.5189 14.2569L9.99567 14.4101L9.84099 14.9329L10.7999 15.2167ZM12.0666 14.6944L12.5375 13.8122L12.0626 13.5588L11.5895 13.8155L12.0666 14.6944ZM13.7943 15.6167L13.3235 16.4988L13.3253 16.4998L13.7943 15.6167ZM14.1943 15.5555L13.4872 14.8484L13.483 14.8527L14.1943 15.5555ZM15.5221 14.2278L14.8192 13.5164L14.815 13.5207L15.5221 14.2278ZM15.5832 13.8278L16.4664 13.3588L16.4648 13.3557L15.5832 13.8278ZM14.661 12.1055L13.7834 11.6261L13.5241 12.1008L13.7794 12.5776L14.661 12.1055ZM15.1888 10.8333L14.9043 9.87463L14.3831 10.0293L14.2295 10.5508L15.1888 10.8333ZM17.061 10.2778L17.3455 11.2365L17.3561 11.2332L17.061 10.2778ZM17.2999 9.95554L18.2999 9.96019V9.95554H17.2999ZM17.2999 8.06109L16.301 8.01371L16.2999 8.03739V8.06109H17.2999ZM17.3804 6.7751L15.5193 6.21954L14.9472 8.13598L16.8083 8.69154L17.3804 6.7751ZM16.1946 6.90242C16.046 6.38374 15.8417 5.88267 15.5853 5.40798L13.8257 6.35866C14.0135 6.70629 14.1631 7.07325 14.2719 7.4531L16.1946 6.90242ZM15.5875 6.3545L16.4986 4.64895L14.7345 3.70658L13.8234 5.41213L15.5875 6.3545ZM16.4998 4.64677C16.6348 4.39242 16.6843 4.1013 16.6408 3.81661L14.6637 4.11866C14.6423 3.97809 14.6667 3.83434 14.7334 3.70875L16.4998 4.64677ZM16.6408 3.81661C16.5973 3.53193 16.4632 3.26885 16.2583 3.06644L14.8526 4.48908C14.7514 4.38914 14.6852 4.25924 14.6637 4.11866L16.6408 3.81661ZM16.264 3.07213L14.9363 1.7388L13.5191 3.15006L14.8469 4.48339L16.264 3.07213ZM14.939 1.74156C14.7366 1.53671 14.4735 1.40258 14.1888 1.35909L13.8868 3.33615C13.7462 3.31467 13.6163 3.24844 13.5164 3.14729L14.939 1.74156ZM14.1888 1.35909C13.9041 1.3156 13.613 1.36505 13.3587 1.50012L14.2967 3.26651C14.1711 3.3332 14.0273 3.35763 13.8868 3.33615L14.1888 1.35909ZM13.3563 1.50136L11.6619 2.40692L12.6046 4.17082L14.299 3.26527L13.3563 1.50136ZM12.6226 2.41677C12.143 2.14771 11.6352 1.93253 11.1083 1.77515L10.5359 3.69148C10.9214 3.80664 11.293 3.9641 11.6439 4.16098L12.6226 2.41677ZM11.7794 2.44411L11.2238 0.605223L9.3093 1.18363L9.86486 3.02252L11.7794 2.44411ZM11.2114 0.56681C11.1185 0.299062 10.9431 0.0676836 10.7104 -0.0940266L9.56912 1.54835C9.45421 1.4685 9.3676 1.35426 9.32176 1.22205L11.2114 0.56681ZM10.7104 -0.0940266C10.4777 -0.255739 10.1997 -0.339448 9.91639 -0.333099L9.96119 1.6664C9.8213 1.66953 9.68402 1.6282 9.56912 1.54835L10.7104 -0.0940266ZM9.93879 -0.33335H8.06101V1.66665H9.93879V-0.33335ZM8.05636 -0.333339C7.77133 -0.332012 7.49417 -0.23976 7.2652 -0.0700099L8.45632 1.53661C8.34326 1.62043 8.20641 1.66598 8.06567 1.66664L8.05636 -0.333339ZM7.2652 -0.0700099C7.03624 0.0997406 6.86742 0.338131 6.78332 0.610468L8.69427 1.20061C8.65274 1.33508 8.56938 1.45279 8.45632 1.53661L7.2652 -0.0700099ZM6.78177 0.615532L6.22621 2.44886L8.14026 3.02888L8.69582 1.19555L6.78177 0.615532ZM6.90059 1.77965C6.3694 1.93617 5.85729 2.15134 5.37372 2.42119L6.34831 4.16767C6.70225 3.97015 7.07709 3.81266 7.46588 3.6981L6.90059 1.77965ZM6.33616 2.41452L4.6695 1.51452L3.7192 3.27433L5.38586 4.17433L6.33616 2.41452ZM4.66335 1.51123C4.40901 1.37617 4.11788 1.32671 3.8332 1.3702L4.13525 3.34726C3.99468 3.36874 3.85093 3.34432 3.72534 3.27762L4.66335 1.51123ZM3.8332 1.3702C3.54852 1.41369 3.28544 1.54782 3.08302 1.75267L4.50567 3.15841C4.40572 3.25956 4.27582 3.32578 4.13525 3.34726L3.8332 1.3702ZM3.09613 1.73965L1.74613 3.05632L3.14256 4.4881L4.49256 3.17143L3.09613 1.73965ZM1.74148 3.06088C1.53663 3.2633 1.4025 3.52637 1.35901 3.81106L3.33607 4.11311C3.31459 4.25368 3.24836 4.38358 3.14721 4.48353L1.74148 3.06088ZM1.35901 3.81106C1.31552 4.09574 1.36497 4.38686 1.50004 4.64121L3.26643 3.7032C3.33312 3.82879 3.35754 3.97254 3.33607 4.11311L1.35901 3.81106ZM1.50333 4.64735L2.40333 6.31402L4.16314 5.36372L3.26314 3.69706L1.50333 4.64735ZM2.41054 5.35061C2.14113 5.83215 1.92596 6.34208 1.769 6.87106L3.68636 7.44002C3.80125 7.05283 3.95874 6.67959 4.15593 6.32713L2.41054 5.35061ZM2.43848 6.19827L0.599587 6.75383L1.178 8.66836L3.01688 8.11281L2.43848 6.19827ZM0.59372 6.75562C0.321383 6.83972 0.0829929 7.00854 -0.0867577 7.23751L1.51987 8.42863C1.43605 8.54168 1.31834 8.62504 1.18386 8.66657L0.59372 6.75562ZM-0.0867577 7.23751C-0.256508 7.46647 -0.34876 7.74364 -0.350087 8.02866L1.64989 8.03797C1.64924 8.17871 1.60368 8.31557 1.51987 8.42863L-0.0867577 7.23751ZM-0.350098 8.03332V9.91109H1.6499V8.03332H-0.350098ZM-0.350087 9.91575C-0.34876 10.2008 -0.256508 10.4779 -0.0867577 10.7069L1.51987 9.51579C1.60368 9.62884 1.64924 9.7657 1.64989 9.90644L-0.350087 9.91575ZM-0.0867577 10.7069C0.0829929 10.9359 0.321383 11.1047 0.59372 11.1888L1.18386 9.27784C1.31834 9.31937 1.43605 9.40273 1.51987 9.51579L-0.0867577 10.7069ZM0.601179 11.1911L2.45118 11.7466L3.0264 9.83113L1.1764 9.27557L0.601179 11.1911ZM1.78231 11.0807C1.94101 11.6009 2.15616 12.1022 2.42392 12.5756L4.16477 11.591C3.96884 11.2446 3.8114 10.8778 3.69528 10.4971L1.78231 11.0807ZM2.40796 11.6204L1.49685 13.3648L3.26962 14.2907L4.18073 12.5463L2.40796 11.6204ZM1.50004 13.3588C1.36497 13.6131 1.31552 13.9042 1.35901 14.1889L3.33607 13.8869C3.35754 14.0274 3.33312 14.1712 3.26643 14.2968L1.50004 13.3588ZM1.35901 14.1889C1.4025 14.4736 1.53663 14.7367 1.74148 14.9391L3.14721 13.5164C3.24836 13.6164 3.31459 13.7463 3.33607 13.8869L1.35901 14.1889ZM1.73724 14.9349L3.06502 16.2626L4.47923 14.8484L3.15145 13.5207L1.73724 14.9349ZM3.0608 16.2584C3.26322 16.4633 3.52629 16.5974 3.81098 16.6409L4.11303 14.6638C4.2536 14.6853 4.3835 14.7515 4.48345 14.8527L3.0608 16.2584ZM3.81098 16.6409C4.09566 16.6844 4.38678 16.6349 4.64113 16.4998L3.70312 14.7335C3.82871 14.6668 3.97246 14.6423 4.11303 14.6638L3.81098 16.6409ZM4.64316 16.4988L6.35982 15.5821L5.41776 13.8179L3.70109 14.7345L4.64316 16.4988ZM5.41392 15.58C5.88275 15.833 6.3773 16.0351 6.88912 16.1829L7.44402 14.2615C7.06919 14.1532 6.70701 14.0052 6.36367 13.8199L5.41392 15.58ZM6.20789 15.5067L6.76344 17.3789L8.68081 16.81L8.12525 14.9377L6.20789 15.5067ZM6.76665 17.3895C6.85075 17.6618 7.01957 17.9002 7.24854 18.07L8.43965 16.4634C8.55272 16.5472 8.63607 16.6649 8.6776 16.7994L6.76665 17.3895ZM7.24854 18.07C7.47751 18.2397 7.75467 18.332 8.03969 18.3333L8.049 16.3333C8.18973 16.334 8.32659 16.3795 8.43965 16.4634L7.24854 18.07ZM8.04435 18.3333H9.92212V16.3333H8.04435V18.3333ZM9.92678 18.3333C10.2118 18.332 10.489 18.2397 10.7179 18.07L9.52682 16.4634C9.63988 16.3795 9.77674 16.334 9.91747 16.3333L9.92678 18.3333ZM10.7179 18.07C10.9469 17.9002 11.1157 17.6618 11.1998 17.3895L9.28887 16.7994C9.3304 16.6649 9.41376 16.5472 9.52682 16.4634L10.7179 18.07ZM11.2033 17.3781L11.7588 15.5004L9.84099 14.9329L9.28543 16.8107L11.2033 17.3781ZM11.0809 16.1764C11.5885 16.0278 12.0788 15.8256 12.5436 15.5733L11.5895 13.8155C11.2493 14.0002 10.8904 14.1482 10.5189 14.2569L11.0809 16.1764ZM11.5957 15.5766L13.3235 16.4988L14.2652 14.7345L12.5375 13.8122L11.5957 15.5766ZM13.3253 16.4998C13.5797 16.6349 13.8708 16.6844 14.1555 16.6409L13.8534 14.6638C13.994 14.6423 14.1378 14.6668 14.2634 14.7335L13.3253 16.4998ZM14.1555 16.6409C14.4402 16.5974 14.7033 16.4633 14.9057 16.2584L13.483 14.8527C13.583 14.7515 13.7129 14.6853 13.8534 14.6638L14.1555 16.6409ZM14.9015 16.2626L16.2292 14.9349L14.815 13.5207L13.4872 14.8484L14.9015 16.2626ZM16.225 14.9391C16.4298 14.7367 16.564 14.4736 16.6075 14.1889L14.6304 13.8869C14.6519 13.7463 14.7181 13.6164 14.8193 13.5164L16.225 14.9391ZM16.6075 14.1889C16.651 13.9042 16.6015 13.6131 16.4664 13.3588L14.7 14.2968C14.6333 14.1712 14.6089 14.0274 14.6304 13.8869L16.6075 14.1889ZM16.4648 13.3557L15.5426 11.6335L13.7794 12.5776L14.7017 14.2998L16.4648 13.3557ZM15.5386 12.585C15.7935 12.1184 15.9978 11.6259 16.148 11.1159L14.2295 10.5508C14.1196 10.9241 13.97 11.2846 13.7834 11.6261L15.5386 12.585ZM15.4733 11.792L17.3455 11.2364L16.7765 9.31908L14.9043 9.87463L15.4733 11.792ZM17.3561 11.2332C17.6284 11.1491 17.8668 10.9803 18.0366 10.7513L16.4299 9.56023C16.5138 9.44717 16.6315 9.36381 16.7659 9.32229L17.3561 11.2332ZM18.0366 10.7513C18.2063 10.5224 18.2986 10.2452 18.2999 9.96019L16.2999 9.95088C16.3006 9.81015 16.3461 9.67329 16.4299 9.56023L18.0366 10.7513ZM18.2999 9.95554V8.06109H16.2999V9.95554H18.2999ZM18.2988 8.10848C18.3117 7.83556 18.2409 7.5652 18.0957 7.3337L16.4013 8.39628C16.3296 8.28196 16.2946 8.14846 16.301 8.01371L18.2988 8.10848ZM18.0957 7.3337C17.9505 7.10221 17.738 6.92068 17.4867 6.81349L16.702 8.65315C16.5779 8.60022 16.473 8.51059 16.4013 8.39628L18.0957 7.3337ZM8.9999 11.0555C8.59335 11.0555 8.19593 10.935 7.8579 10.7091L6.74676 12.3721C7.41369 12.8177 8.19779 13.0555 8.9999 13.0555V11.0555ZM7.8579 10.7091C7.51986 10.4832 7.2564 10.1622 7.10082 9.78661L5.25306 10.552C5.56001 11.293 6.07982 11.9264 6.74676 12.3721L7.8579 10.7091ZM7.10082 9.78661C6.94524 9.41101 6.90453 8.9977 6.98384 8.59897L5.02227 8.20878C4.86579 8.99549 4.9461 9.81092 5.25306 10.552L7.10082 9.78661ZM6.98384 8.59897C7.06316 8.20023 7.25893 7.83396 7.5464 7.54649L6.13219 6.13227C5.56501 6.69945 5.17876 7.42208 5.02227 8.20878L6.98384 8.59897ZM7.5464 7.54649C7.83388 7.25901 8.20014 7.06324 8.59888 6.98393L8.2087 5.02236C7.422 5.17884 6.69937 5.56509 6.13219 6.13227L7.5464 7.54649ZM8.59888 6.98393C8.99762 6.90461 9.41093 6.94532 9.78653 7.1009L10.5519 5.25314C9.81084 4.94618 8.9954 4.86587 8.2087 5.02236L8.59888 6.98393ZM9.78653 7.1009C10.1621 7.25648 10.4832 7.51994 10.709 7.85798L12.372 6.74684C11.9263 6.07991 11.293 5.56009 10.5519 5.25314L9.78653 7.1009ZM10.709 7.85798C10.9349 8.19601 11.0555 8.59343 11.0555 8.99998H13.0555C13.0555 8.19787 12.8176 7.41377 12.372 6.74684L10.709 7.85798ZM11.0555 8.99998C11.0555 9.54515 10.8389 10.068 10.4534 10.4535L11.8676 11.8677C12.6282 11.1071 13.0555 10.0756 13.0555 8.99998H11.0555ZM10.4534 10.4535C10.0679 10.839 9.54507 11.0555 8.9999 11.0555V13.0555C10.0755 13.0555 11.107 12.6283 11.8676 11.8677L10.4534 10.4535Z" fill="black" mask="url(#path-1-inside-1_117_354)"/>
</svg>
